<svg version="1.0" xmlns="http://www.w3.org/2000/svg"  width="300.000000pt" height="130.000000pt" viewBox="0 0 300.000000 130.000000"  preserveAspectRatio="xMidYMid meet">  <g transform="translate(0.000000,130.000000) scale(0.100000,-0.100000)" fill="#000000" stroke="none"> <path d="M375 925 c-63 -34 -87 -69 -100 -146 -3 -21 -14 -48 -25 -62 -24 -30 -26 -55 -6 -63 8 -3 12 -12 9 -19 -2 -8 2 -28 10 -44 8 -17 13 -39 10 -49 -8 -31 22 -47 63 -34 38 11 37 12 49 -42 4 -21 9 -26 17 -18 8 8 9 21 1 46 -8 24 -7 38 0 45 18 18 0 23 -30 8 -15 -8 -38 -18 -50 -21 -20 -7 -23 -4 -23 23 0 16 -4 32 -10 36 -5 3 -7 12 -3 20 3 8 0 15 -6 15 -6 0 -8 7 -4 15 3 9 -2 22 -12 29 -17 12 -17 14 5 43 12 17 26 53 31 79 12 64 36 95 92 118 41 17 51 18 89 7 54 -16 96 -62 104 -112 4 -22 11 -39 16 -39 11 0 6 53 -7 83 -7 16 2 17 114 17 l121 0 0 -36 c0 -24 4 -34 13 -31 7 2 12 20 12 43 l-1 39 -138 3 c-132 2 -140 4 -173 29 -44 33 -123 42 -168 18z"/> <path d="M725 800 c-24 -27 -13 -68 22 -76 33 -9 57 6 61 38 6 50 -49 76 -83 38z m55 -15 c15 -18 6 -45 -13 -45 -8 0 -20 7 -27 15 -10 12 -10 18 0 30 16 19 24 19 40 0z"/> <path d="M510 795 c-9 -10 -24 -13 -55 -8 -38 5 -47 2 -69 -20 -34 -34 -34 -79 -1 -112 28 -29 85 -34 105 -10 16 19 5 34 -12 17 -39 -39 -111 12 -92 66 12 34 57 51 85 34 17 -11 25 -9 49 8 17 12 30 26 30 31 0 14 -26 11 -40 -6z"/> <path d="M1961 784 c-17 -14 -36 -43 -42 -64 -25 -82 58 -166 140 -141 49 14 81 50 88 98 14 105 -106 174 -186 107z m136 -25 c30 -29 38 -71 19 -108 -31 -60 -99 -70 -147 -22 -46 47 -38 114 19 146 33 19 78 12 109 -16z"/> <path d="M1981 734 c-27 -35 -26 -59 4 -89 30 -30 54 -31 89 -4 17 14 26 30 26 50 0 65 -80 93 -119 43z m83 -10 c30 -30 13 -74 -29 -74 -60 0 -59 88 2 90 6 0 19 -7 27 -16z"/> <path d="M990 765 l0 -35 95 0 c57 0 95 4 95 10 0 6 -35 10 -85 10 -69 0 -85 3 -85 15 0 12 16 15 83 15 85 0 107 -8 107 -42 0 -29 -36 -40 -126 -36 l-84 3 0 -62 0 -63 35 0 c34 0 35 1 35 40 0 22 -4 40 -10 40 -5 0 -10 -11 -10 -25 0 -16 -6 -25 -15 -25 -10 0 -15 11 -15 35 l0 35 90 0 c77 0 93 3 110 20 24 24 25 48 4 78 -14 20 -23 22 -120 22 l-104 0 0 -35z"/> <path d="M1260 690 l0 -110 35 0 c24 0 35 5 35 15 0 9 -9 15 -25 15 -25 0 -25 1 -25 85 0 69 3 85 15 85 12 0 15 -15 15 -75 0 -43 4 -75 10 -75 6 0 10 35 10 85 l0 85 -35 0 -35 0 0 -110z"/> <path d="M1428 784 c-58 -31 -67 -113 -19 -166 28 -32 33 -33 115 -37 l86 -3 0 31 c0 17 0 34 1 38 0 4 -4 9 -10 11 -6 2 -11 -8 -11 -22 0 -25 -1 -26 -70 -26 -62 0 -74 3 -95 25 -32 31 -32 75 -1 112 21 24 32 28 95 31 60 4 71 2 71 -12 0 -13 -12 -16 -65 -16 -52 0 -69 -4 -85 -20 -25 -25 -25 -41 1 -74 18 -22 28 -26 76 -26 73 0 67 23 -8 30 -41 4 -55 9 -57 23 -7 35 16 47 92 47 l72 0 -4 35 -4 35 -77 0 c-47 -1 -86 -6 -103 -16z"/> <path d="M1660 765 c0 -34 1 -35 40 -35 l40 0 0 -75 0 -75 35 0 35 0 0 85 c0 50 -4 85 -10 85 -6 0 -10 -30 -10 -70 0 -57 -3 -70 -16 -70 -13 0 -15 11 -12 70 l3 70 -42 0 c-32 0 -43 4 -43 15 0 12 17 15 95 15 78 0 95 -3 95 -15 0 -8 -7 -15 -15 -15 -8 0 -15 -4 -15 -10 0 -5 14 -10 30 -10 28 0 30 3 30 35 l0 35 -120 0 -120 0 0 -35z"/> <path d="M2172 765 l1 -35 94 0 c55 0 93 4 93 10 0 6 -33 10 -80 10 -64 0 -80 3 -80 15 0 12 15 15 76 15 83 0 114 -11 114 -40 0 -30 -31 -40 -127 -40 l-88 0 -2 -60 -2 -60 39 0 c36 0 40 3 40 25 0 21 5 25 28 25 21 0 32 -7 40 -25 10 -21 19 -25 52 -25 46 0 47 3 20 48 -27 44 -53 45 -30 1 9 -15 7 -19 -5 -19 -8 0 -21 11 -27 25 -10 23 -17 26 -57 23 -39 -3 -46 -6 -49 -25 -5 -36 -22 -27 -22 12 l0 35 88 0 c92 0 117 10 122 50 8 58 -14 70 -135 70 l-104 0 1 -35z"/> <path d="M2524 698 c-33 -57 -61 -107 -63 -111 -1 -5 16 -7 40 -5 43 3 44 5 84 75 l41 72 32 -54 c36 -60 37 -65 19 -65 -7 0 -21 17 -31 37 -13 27 -20 33 -26 23 -5 -9 -1 -28 13 -52 20 -35 26 -38 65 -38 l44 0 -22 38 c-12 20 -38 65 -58 99 l-35 61 -47 -81 c-26 -45 -55 -83 -64 -85 -12 -3 -4 17 30 75 67 114 67 113 50 113 -7 0 -40 -46 -72 -102z"/> <path d="M423 749 c-31 -11 -32 -64 -2 -79 25 -14 41 -3 16 11 -24 14 -22 49 2 49 11 0 22 4 25 9 9 13 -16 19 -41 10z"/> <path d="M470 716 c0 -12 10 -16 40 -16 22 0 40 5 40 10 0 6 -11 10 -24 10 -13 0 -31 3 -40 6 -11 4 -16 1 -16 -10z"/> <path d="M619 650 c-24 -44 -47 -80 -50 -80 -4 0 -12 13 -19 30 -22 53 -36 56 -59 11 -24 -46 -44 -63 -39 -33 2 12 -1 21 -7 22 -6 0 -10 -27 -10 -62 l0 -63 208 -3 c136 -1 207 1 207 8 0 5 -8 10 -19 10 -13 0 -38 34 -87 120 -38 66 -72 120 -75 120 -3 0 -25 -36 -50 -80z m74 5 c9 -19 34 -64 56 -100 l40 -65 -87 0 c-83 0 -88 1 -103 26 -16 25 -15 29 25 100 23 40 44 74 47 74 3 0 13 -16 22 -35z m-134 -112 l30 -53 -69 0 c-39 0 -70 3 -70 6 0 15 65 113 71 106 4 -4 21 -31 38 -59z"/> </g> </svg> 